<svg xmlns="http://www.w3.org/2000/svg" viewBox="0 0 128 128" role="img" aria-label="Vanilla DevKit icon">
  <defs>
    <linearGradient id="bg" x1="0" y1="0" x2="1" y2="1">
      <stop offset="0%" stop-color="#1B1E18"/>
      <stop offset="55%" stop-color="#121510"/>
      <stop offset="100%" stop-color="#0B0D0A"/>
    </linearGradient>
    <radialGradient id="glow" cx="50%" cy="34%" r="68%">
      <stop offset="0%" stop-color="#2B3125"/>
      <stop offset="70%" stop-color="#171B15" stop-opacity="0.35"/>
      <stop offset="100%" stop-color="#0A0C09" stop-opacity="0"/>
    </radialGradient>
    <linearGradient id="panel" x1="0" y1="0" x2="0" y2="1">
      <stop offset="0%" stop-color="#2D3327"/>
      <stop offset="100%" stop-color="#171B14"/>
    </linearGradient>
    <linearGradient id="grassTop" x1="0" y1="0" x2="1" y2="1">
      <stop offset="0%" stop-color="#95D653"/>
      <stop offset="100%" stop-color="#5E9F32"/>
    </linearGradient>
    <linearGradient id="dirtLeft" x1="0" y1="0" x2="1" y2="1">
      <stop offset="0%" stop-color="#9A6840"/>
      <stop offset="100%" stop-color="#603821"/>
    </linearGradient>
    <linearGradient id="dirtRight" x1="0" y1="0" x2="1" y2="1">
      <stop offset="0%" stop-color="#885333"/>
      <stop offset="100%" stop-color="#4D2817"/>
    </linearGradient>
    <linearGradient id="orange" x1="0" y1="0" x2="1" y2="1">
      <stop offset="0%" stop-color="#FFB06C"/>
      <stop offset="100%" stop-color="#F77E2D"/>
    </linearGradient>
    <filter id="shadow" x="-20%" y="-20%" width="140%" height="140%">
      <feDropShadow dx="0" dy="6" stdDeviation="5" flood-color="#000000" flood-opacity="0.34"/>
    </filter>
  </defs>

  <rect width="128" height="128" rx="28" fill="url(#bg)"/>
  <rect x="6" y="6" width="116" height="116" rx="24" fill="url(#panel)" stroke="#4B5544" stroke-width="1.5"/>
  <rect x="12" y="12" width="104" height="104" rx="20" fill="url(#glow)"/>
  <path d="M18 28C34 18 54 14 80 16C95 17 106 21 112 25" fill="none" stroke="#FFFFFF" stroke-opacity="0.08" stroke-width="2"/>

  <g filter="url(#shadow)">
    <path d="M64 22L88 30L104 50V78L88 98L64 106L40 98L24 78V50L40 30Z" fill="#151913" stroke="#3D4636" stroke-width="2"/>
    <path d="M64 27L84 34L97 51V75L84 92L64 99L44 92L31 75V51L44 34Z" fill="none" stroke="#F77E2D" stroke-opacity="0.28" stroke-width="2"/>

    <path d="M64 36L86 47L64 58L42 47Z" fill="url(#grassTop)" stroke="#191B14" stroke-width="2.5" stroke-linejoin="round"/>
    <path d="M42 47L64 58V86L42 75Z" fill="url(#dirtLeft)" stroke="#1A130E" stroke-width="2.5" stroke-linejoin="round"/>
    <path d="M86 47L64 58V86L86 75Z" fill="url(#dirtRight)" stroke="#1A130E" stroke-width="2.5" stroke-linejoin="round"/>

    <path d="M64 38L81 46L64 55L47 46Z" fill="none" stroke="#E4FFB8" stroke-opacity="0.38" stroke-width="1.25"/>
    <path d="M64 58V84" fill="none" stroke="url(#orange)" stroke-width="2.5" stroke-linecap="round"/>
    <path d="M42 47L64 58L86 47" fill="none" stroke="url(#orange)" stroke-width="2.5" stroke-linecap="round" stroke-linejoin="round"/>
    <path d="M48 43L55 46M58 47L65 50M68 51L75 54" fill="none" stroke="#EBFFD0" stroke-width="1.6" stroke-linecap="round" opacity="0.85"/>

    <path d="M49 64L58 68M49 70L58 74M70 68L79 64M70 74L79 70" fill="none" stroke="#F8A35A" stroke-opacity="0.45" stroke-width="1.7" stroke-linecap="round"/>
  </g>

  <g fill="none" stroke="url(#orange)" stroke-width="3" stroke-linecap="round" stroke-linejoin="round" opacity="0.95">
    <path d="M34 41V34H42"/>
    <path d="M86 34H94V42"/>
    <path d="M94 86V94H86"/>
    <path d="M42 94H34V86"/>
  </g>

  <path d="M25 103C41 109 58 112 76 111C89 111 100 108 107 103" fill="none" stroke="#000000" stroke-opacity="0.18" stroke-width="3"/>
</svg>
